<mxfile host="app.diagrams.net" modified="2023-12-19T21:48:41.749Z" agent="Mozilla/5.0 (Windows NT 10.0; Win64; x64) AppleWebKit/537.36 (KHTML, like Gecko) Chrome/120.0.0.0 Safari/537.36 Edg/120.0.0.0" version="22.1.11" etag="bweeB1AlMhDRFzLhnhip" type="github">
  <diagram name="第 1 页" id="csIow9575Tld--xzEYRS">
    <mxGraphModel>
      <root>
        <mxCell id="0" />
        <mxCell id="1" parent="0" />
      </root>
    </mxGraphModel>
  </diagram>
</mxfile>
